<svg xmlns="http://www.w3.org/2000/svg" xmlns:xlink="http://www.w3.org/1999/xlink" width="375" viewBox="0 0 375 375" height="375" version="1.0"><defs><g id="e"><path d="M 15 -15.171875 C 15.03125 -14.671875 15 -13.847656 14.90625 -12.703125 C 14.820312 -11.554688 14.710938 -10.625 14.578125 -9.90625 L 12.4375 -9.90625 L 12.09375 -13.078125 L 9.65625 -13.296875 L 9.65625 -1.5625 L 11.875 -1.203125 L 11.84375 0 L 3.453125 0 L 3.3125 -0.71875 C 3.75 -1.03125 4.492188 -1.410156 5.546875 -1.859375 L 5.546875 -13.296875 L 3.0625 -13.078125 L 2.71875 -9.90625 L 0.609375 -9.90625 C 0.304688 -11.21875 0.15625 -12.742188 0.15625 -14.484375 L 0.1875 -15.171875 L 7.625 -15.078125 L 14.984375 -15.171875 Z M 15 -15.171875"/></g><g id="f"><path d="M 8.65625 -1.203125 L 8.625 0 L 0.6875 0 L 0.546875 -0.71875 C 1.117188 -1.113281 1.757812 -1.472656 2.46875 -1.796875 L 2.46875 -13.546875 L 0.71875 -13.828125 L 0.75 -15.03125 L 8.375 -15.03125 L 8.515625 -14.296875 C 7.972656 -13.910156 7.328125 -13.554688 6.578125 -13.234375 L 6.578125 -1.546875 Z M 8.65625 -1.203125"/></g><g id="g"><path d="M 16.9375 -1.203125 L 16.90625 0 L 11.671875 0 L 7.25 -6.21875 L 6.578125 -5.515625 L 6.578125 -1.5 L 8.375 -1.203125 L 8.359375 0 L 0.6875 0 L 0.546875 -0.71875 C 1.117188 -1.113281 1.757812 -1.472656 2.46875 -1.796875 L 2.46875 -13.546875 L 0.71875 -13.828125 L 0.75 -15.03125 L 8.375 -15.03125 L 8.515625 -14.296875 C 7.972656 -13.910156 7.328125 -13.554688 6.578125 -13.234375 L 6.578125 -8.484375 L 11.328125 -13.59375 L 9.859375 -13.828125 L 9.875 -15.03125 L 15.890625 -15.03125 L 16.03125 -14.296875 C 15.625 -14.023438 14.941406 -13.707031 13.984375 -13.34375 L 9.921875 -9.0625 L 15.546875 -1.46875 Z M 16.9375 -1.203125"/></g><g id="h"><path d="M 6.46875 -5.296875 L 6.46875 -1.640625 L 9.234375 -1.203125 L 9.21875 0 L 0.703125 0 L 0.5625 -0.71875 C 1.15625 -1.113281 1.753906 -1.445312 2.359375 -1.71875 L 2.359375 -13.578125 L 0.6875 -13.828125 L 0.703125 -15.03125 L 8.53125 -15.21875 C 10.332031 -15.226562 11.800781 -14.757812 12.9375 -13.8125 C 14.070312 -12.863281 14.640625 -11.640625 14.640625 -10.140625 C 14.640625 -8.785156 14.097656 -7.648438 13.015625 -6.734375 C 11.929688 -5.816406 10.5625 -5.34375 8.90625 -5.3125 Z M 6.46875 -12.890625 L 6.46875 -7.578125 C 7 -7.460938 7.503906 -7.40625 7.984375 -7.40625 C 8.804688 -7.40625 9.425781 -7.671875 9.84375 -8.203125 C 10.269531 -8.742188 10.484375 -9.414062 10.484375 -10.21875 C 10.484375 -10.820312 10.378906 -11.414062 10.171875 -12 C 9.960938 -12.582031 9.664062 -12.992188 9.28125 -13.234375 Z M 6.46875 -12.890625"/></g><g id="i"><path d="M 7.734375 -15.484375 C 9.953125 -15.484375 11.773438 -14.722656 13.203125 -13.203125 C 14.628906 -11.679688 15.34375 -9.71875 15.34375 -7.3125 C 15.34375 -4.96875 14.65625 -3.085938 13.28125 -1.671875 C 11.90625 -0.253906 10.113281 0.453125 7.90625 0.453125 C 5.664062 0.453125 3.828125 -0.265625 2.390625 -1.703125 C 0.960938 -3.148438 0.25 -5.050781 0.25 -7.40625 C 0.25 -9.78125 0.953125 -11.71875 2.359375 -13.21875 C 3.765625 -14.726562 5.554688 -15.484375 7.734375 -15.484375 Z M 6.03125 -12.984375 C 5.59375 -12.585938 5.238281 -11.929688 4.96875 -11.015625 C 4.695312 -10.109375 4.5625 -9.054688 4.5625 -7.859375 C 4.5625 -6.003906 4.890625 -4.519531 5.546875 -3.40625 C 6.203125 -2.300781 7.125 -1.75 8.3125 -1.75 C 8.6875 -1.75 9.039062 -1.8125 9.375 -1.9375 C 9.875 -2.40625 10.273438 -3.113281 10.578125 -4.0625 C 10.878906 -5.019531 11.03125 -6.082031 11.03125 -7.25 C 11.03125 -9.03125 10.703125 -10.476562 10.046875 -11.59375 C 9.398438 -12.71875 8.535156 -13.28125 7.453125 -13.28125 C 6.992188 -13.28125 6.519531 -13.179688 6.03125 -12.984375 Z M 6.03125 -12.984375"/></g><clipPath id="a"><path d="M 43.191406 131.878906 L 139.941406 131.878906 L 139.941406 216 L 43.191406 216 Z M 43.191406 131.878906"/></clipPath><clipPath id="b"><path d="M 43.191406 186 L 139.941406 186 L 139.941406 242.878906 L 43.191406 242.878906 Z M 43.191406 186"/></clipPath><clipPath id="c"><path d="M 90 131.878906 L 93 131.878906 L 93 242.878906 L 90 242.878906 Z M 90 131.878906"/></clipPath><clipPath id="d"><path d="M 43.191406 132 L 139.941406 132 L 139.941406 242.878906 L 43.191406 242.878906 Z M 43.191406 132"/></clipPath></defs><g clip-path="url(#a)"><path fill="#D2A04D" d="M 114.722656 174.070312 L 91.5625 134.160156 L 68.425781 174.03125 L 68.40625 174.074219 L 46 212.683594 L 67.378906 200.402344 L 91.1875 186.722656 C 91.414062 186.59375 91.699219 186.585938 91.933594 186.722656 L 115.746094 200.402344 L 137.125 212.683594 L 114.71875 174.074219 L 114.71875 174.070312 Z M 92.21875 132.289062 L 116.027344 173.324219 L 116.03125 173.324219 L 139.839844 214.355469 C 140.046875 214.714844 139.921875 215.175781 139.5625 215.382812 C 139.308594 215.53125 139 215.511719 138.769531 215.359375 L 115 201.707031 L 91.5625 188.242188 L 68.128906 201.707031 L 44.320312 215.382812 C 43.957031 215.589844 43.5 215.464844 43.292969 215.109375 C 43.15625 214.871094 43.164062 214.585938 43.292969 214.363281 L 67.101562 173.328125 L 67.128906 173.289062 L 90.914062 132.296875 C 91.121094 131.941406 91.582031 131.8125 91.941406 132.023438 C 92.0625 132.089844 92.15625 132.1875 92.21875 132.296875 Z M 92.21875 132.289062" fill-rule="evenodd"/></g><g clip-path="url(#b)"><path fill="#D2A04D" d="M 115 201.707031 L 91.5625 188.242188 L 68.128906 201.707031 L 45.449219 214.734375 L 68.128906 227.765625 L 91.5625 241.226562 L 115 227.765625 L 137.683594 214.734375 Z M 91.9375 186.730469 L 115.746094 200.410156 L 139.5625 214.089844 C 139.917969 214.292969 140.046875 214.75 139.839844 215.109375 C 139.769531 215.230469 139.671875 215.320312 139.5625 215.382812 L 115.746094 229.0625 L 91.9375 242.742188 C 91.699219 242.878906 91.414062 242.871094 91.191406 242.742188 L 43.566406 215.382812 C 43.210938 215.179688 43.082031 214.722656 43.292969 214.363281 C 43.363281 214.242188 43.460938 214.152344 43.566406 214.089844 L 91.191406 186.730469 C 91.429688 186.59375 91.714844 186.601562 91.9375 186.730469 Z M 91.9375 186.730469" fill-rule="evenodd"/></g><g clip-path="url(#c)"><path fill="#D2A04D" d="M 90.808594 132.660156 C 90.808594 132.246094 91.148438 131.910156 91.566406 131.910156 C 91.984375 131.910156 92.324219 132.25 92.324219 132.660156 L 92.324219 242.089844 C 92.324219 242.503906 91.984375 242.84375 91.566406 242.84375 C 91.152344 242.84375 90.808594 242.503906 90.808594 242.089844 Z M 90.808594 132.660156" fill-rule="evenodd"/></g><g clip-path="url(#d)"><path fill="#D2A04D" d="M 91.5625 150.0625 L 113.070312 187.121094 L 128.210938 195.820312 L 91.5625 132.660156 L 67.753906 173.699219 L 48.316406 207.203125 L 43.945312 214.734375 L 52.6875 219.757812 L 61.425781 214.734375 L 81.226562 203.359375 L 91.5625 197.421875 L 121.707031 214.734375 L 91.5625 232.050781 L 72.253906 220.953125 L 63.515625 225.976562 L 70.015625 229.710938 L 91.5625 242.089844 L 115.378906 228.414062 L 139.1875 214.734375 L 124.042969 206.035156 L 91.5625 187.378906 L 67.753906 201.054688 L 59.085938 206.035156 Z M 91.5625 150.0625" fill-rule="evenodd"/></g><g fill="#231F20"><use x="144.916" y="216.255" xmlns:xlink="http://www.w3.org/1999/xlink" xlink:href="#e" xlink:type="simple" xlink:actuate="onLoad" xlink:show="embed"/></g><g fill="#231F20"><use x="169.3" y="216.255" xmlns:xlink="http://www.w3.org/1999/xlink" xlink:href="#f" xlink:type="simple" xlink:actuate="onLoad" xlink:show="embed"/></g><g fill="#231F20"><use x="187.713" y="216.255" xmlns:xlink="http://www.w3.org/1999/xlink" xlink:href="#g" xlink:type="simple" xlink:actuate="onLoad" xlink:show="embed"/></g><g fill="#231F20"><use x="214.026" y="216.255" xmlns:xlink="http://www.w3.org/1999/xlink" xlink:href="#h" xlink:type="simple" xlink:actuate="onLoad" xlink:show="embed"/></g><g fill="#231F20"><use x="238.159" y="216.255" xmlns:xlink="http://www.w3.org/1999/xlink" xlink:href="#i" xlink:type="simple" xlink:actuate="onLoad" xlink:show="embed"/></g><g fill="#231F20"><use x="262.974" y="216.255" xmlns:xlink="http://www.w3.org/1999/xlink" xlink:href="#h" xlink:type="simple" xlink:actuate="onLoad" xlink:show="embed"/></g></svg>